<svg xmlns="http://www.w3.org/2000/svg" width="800" height="800" class="foo__icon foo__flat-line" data-name="Flat Line" viewBox="0 0 24 24"><path d="M19.5 12.5a5.12 5.12 0 0 1-3.62 1.5H13v1h-2v-1H8.12a5.12 5.12 0 0 1-3.62-1.5 5 5 0 0 1-.5-.61V20a1 1 0 0 0 1 1h14a1 1 0 0 0 1-1v-8.11a5 5 0 0 1-.5.61" style="fill:#2ca9bc;stroke-width:2"/><path d="M20 12v8a1 1 0 0 1-1 1H5a1 1 0 0 1-1-1v-8" style="fill:none;stroke:#000;stroke-linecap:round;stroke-linejoin:round;stroke-width:2"/><path d="M13 14h2.88A5.12 5.12 0 0 0 21 8.88V8a1 1 0 0 0-1-1H4a1 1 0 0 0-1 1v.88A5.12 5.12 0 0 0 8.12 14H11" data-name="primary" style="fill:none;stroke:#000;stroke-linecap:round;stroke-linejoin:round;stroke-width:2"/><path d="M16 7H8V4a1 1 0 0 1 1-1h6a1 1 0 0 1 1 1Zm-3 6h-2v2h2Z" data-name="primary" style="fill:none;stroke:#000;stroke-linecap:round;stroke-linejoin:round;stroke-width:2"/></svg>